<svg width="619" height="112" viewBox="0 0 619 112" fill="none" xmlns="http://www.w3.org/2000/svg">
<path d="M0.171265 54.6788C9.15077 53.3123 29.218 46.363 37.6509 29.4971C48.1921 8.41483 52.2914 -3.29756 80.4012 3.14425C108.511 9.58607 104.412 -12.0819 127.251 18.3704C150.09 48.8226 144.819 31.8396 167.658 35.3533C190.498 38.867 196.939 52.3363 210.994 35.3533C225.049 18.3704 240.275 45.8945 266.043 38.8671C291.81 31.8396 291.224 68.7337 325.19 66.9768C359.156 65.2199 341.002 114.412 382.581 110.313C424.16 106.213 400.149 75.7611 439.972 94.5009C479.794 113.241 486.821 33.0109 517.273 45.3089C547.726 57.6069 566.465 88.6447 618 65.2199" stroke="#29A073" stroke-width="2"/>
</svg>
