<svg width="620" height="114" viewBox="0 0 620 114" fill="none" xmlns="http://www.w3.org/2000/svg">
<path d="M1 51.9389C17.5926 45.4971 53.94 33.3162 66.5894 36.1271C82.4011 39.6409 106.997 52.5245 110.511 54.2814C114.025 56.0382 141.549 79.463 155.018 47.8396C168.487 16.2161 197.768 6.26058 214.751 19.7298C231.734 33.1991 241.69 -11.8936 269.799 6.26057C297.909 24.4148 305.522 44.3259 323.676 41.9834C341.831 39.6409 351.786 71.85 377.553 69.5075C403.321 67.1651 403.321 72.4356 414.447 75.9494C425.574 79.4631 442.557 56.0383 464.811 68.3363C487.064 80.6343 501.119 56.0383 516.931 86.4905C532.743 116.943 538.599 115.186 556.167 107.573C573.736 99.9598 582.52 115.771 594.233 101.131C603.603 89.4186 614.144 72.0452 618.243 64.8226" stroke="#C8EE44" stroke-width="2"/>
</svg>
